#!OML:ASF X:\für Bonn\!DataBase\2005_08_11_Bastian_Final\c3d\Bastian.ASF
:FULLY-SPECIFIED
:DEGREES
170
root 23.1304 16.2816 -2.29117 351.662 -73.4866 40.71
lowerback 75.743 -5.44187 13.7342
upperback 11.4645 2.01479 0.784538
thorax -6.91525 0.311492 -5.04047
lowerneck 0.424759 -8.8468 1.61248
upperneck -29.0628 -11.0998 8.73075
head -8.72816 -7.01616 3.60685
rclavicle 5.40694e-014 5.08889e-014
rhumerus 62.354 -18.3484 -50.9829
rradius 16.0903
rwrist 2.77057
rhand -32.6432 -3.68361
rfingers 7.12502
rthumb -5.86973 -33.5823
lclavicle 5.40694e-014 5.08889e-014
lhumerus -14.8227 -30.8854 88.9228
lradius 51.2395
lwrist 31.3175
lhand -11.9459 -13.8018
lfingers 7.12502
lthumb 14.1092 15.6992
rfemur -71.6942 -5.37368 12.8403
rtibia 64.3589
rfoot -14.6578 -7.21586
rtoes 1.38707
lfemur -66.8959 -5.53301 -30.6732
ltibia 46.5776
lfoot -1.7149 -3.88365
ltoes -12.2526
171
root 23.1064 16.2717 -2.28781 352.104 -73.4808 40.4773
lowerback 75.9809 -5.42164 13.6509
upperback 11.2704 2.04382 0.716259
thorax -7.12574 0.314124 -5.09344
lowerneck 0.585478 -8.83699 1.64746
upperneck -28.9788 -11.068 8.73062
head -8.73097 -6.996 3.60331
rclavicle -1.27222e-014 0
rhumerus 62.2785 -18.4284 -51.5847
rradius 16.1394
rwrist 3.29288
rhand -32.8933 -3.7121
rfingers 7.12502
rthumb -6.11118 -33.604
lclavicle -1.27222e-014 0
lhumerus -15.1765 -30.8545 88.9739
lradius 51.3037
lwrist 31.4488
lhand -12.0544 -13.924
lfingers 7.12502
lthumb 14.0046 15.5843
rfemur -71.9081 -5.26186 12.824
rtibia 64.5266
rfoot -14.8043 -7.40205
rtoes 1.31173
lfemur -67.225 -5.70968 -30.3693
ltibia 46.8699
lfoot -1.87457 -4.01291
ltoes -12.387
172
root 23.0827 16.2629 -2.28501 352.497 -73.4691 40.2779
lowerback 76.2359 -5.39762 13.5456
upperback 11.0711 2.06252 0.643157
thorax -7.34396 0.312109 -5.13957
lowerneck 0.761172 -8.82556 1.70663
upperneck -28.9095 -11.0286 8.73802
head -8.74338 -6.97601 3.60014
rclavicle -1.90833e-014 3.65764e-014
rhumerus 62.1718 -18.4704 -52.1357
rradius 16.2129
rwrist 3.77257
rhand -33.1769 -3.79747
rfingers 7.12502
rthumb -6.38502 -33.6812
lclavicle -1.90833e-014 3.65764e-014
lhumerus -15.5211 -30.8389 88.9948
lradius 51.3934
lwrist 31.6438
lhand -12.2169 -14.0135
lfingers 7.12502
lthumb 13.8479 15.5055
rfemur -72.1044 -5.18741 12.8257
rtibia 64.6881
rfoot -14.9325 -7.55004
rtoes 1.20901
lfemur -67.5241 -5.8331 -30.1378
ltibia 47.1455
lfoot -2.04467 -4.16637
ltoes -12.5881
173
root 23.0589 16.2548 -2.28119 352.891 -73.4599 40.0833
lowerback 76.4691 -5.37834 13.4664
upperback 10.8705 2.09048 0.561489
thorax -7.56166 0.315668 -5.2105
lowerneck 0.885294 -8.84584 1.77679
upperneck -28.7622 -11.0386 8.73658
head -8.71853 -6.97697 3.58666
rclavicle 3.18055e-014 -1.27222e-014
rhumerus 62.0243 -18.5491 -52.6838
rradius 16.2716
rwrist 4.23317
rhand -33.4925 -3.78886
rfingers 7.12502
rthumb -6.68969 -33.6632
lclavicle 3.18055e-014 -1.27222e-014
lhumerus -15.8604 -30.8188 89.0273
lradius 51.455
lwrist 31.8409
lhand -12.3231 -14.161
lfingers 7.12502
lthumb 13.7456 15.3649
rfemur -72.3031 -5.13662 12.8427
rtibia 64.838
rfoot -15.0829 -7.64828
rtoes 1.36142
lfemur -67.8267 -5.97227 -29.9021
ltibia 47.4158
lfoot -2.18616 -4.28821
ltoes -12.8144
174
root 23.0366 16.2469 -2.2776 353.294 -73.4121 39.8569
lowerback 76.7003 -5.38136 13.3858
upperback 10.6817 2.09517 0.497337
thorax -7.76774 0.308619 -5.25048
lowerneck 1.0226 -8.84662 1.85985
upperneck -28.6477 -11.0274 8.70465
head -8.71157 -6.96741 3.5632
rclavicle 1.30403e-013 1.59028e-014
rhumerus 61.9685 -18.6272 -53.2745
rradius 16.3024
rwrist 4.73292
rhand -33.8162 -3.79465
rfingers 7.12502
rthumb -7.00216 -33.6588
lclavicle 1.30403e-013 1.59028e-014
lhumerus -16.1672 -30.7686 89.0454
lradius 51.489
lwrist 31.9849
lhand -12.4469 -14.3313
lfingers 7.12502
lthumb 13.6263 15.2027
rfemur -72.4733 -5.10059 12.845
rtibia 64.9832
rfoot -15.2026 -7.79305
rtoes 1.25989
lfemur -68.0826 -6.1038 -29.7271
ltibia 47.6602
lfoot -2.36217 -4.44009
ltoes -13.3841
175
root 23.0136 16.2401 -2.27424 353.603 -73.3896 39.7104
lowerback 76.9172 -5.346 13.2793
upperback 10.5085 2.11332 0.438711
thorax -7.95971 0.307244 -5.28164
lowerneck 1.21568 -8.83584 1.89695
upperneck -28.6165 -10.9884 8.71838
head -8.73858 -6.94783 3.56923
rclavicle -3.49861e-014 -3.49861e-014
rhumerus 61.8455 -18.6707 -53.7061
rradius 16.3217
rwrist 5.06383
rhand -34.1534 -3.73162
rfingers 7.12502
rthumb -7.32766 -33.5847
lclavicle -3.49861e-014 -3.49861e-014
lhumerus -16.4794 -30.7095 89.086
lradius 51.5479
lwrist 32.1019
lhand -12.5332 -14.4434
lfingers 7.12502
lthumb 13.5431 15.0962
rfemur -72.6211 -5.056 12.8326
rtibia 65.1166
rfoot -15.3306 -7.89161
rtoes 1.29221
lfemur -68.3083 -6.19742 -29.5912
ltibia 47.8912
lfoot -2.5436 -4.54801
ltoes -13.8566
